<?xml version="1.0" standalone="no"?>
<!DOCTYPE svg PUBLIC "-//W3C//DTD SVG 20010904//EN"
 "http://www.w3.org/TR/2001/REC-SVG-20010904/DTD/svg10.dtd">
<svg version="1.0" xmlns="http://www.w3.org/2000/svg"
 width="201.000000pt" height="51.000000pt" viewBox="0 0 201.000000 51.000000"
 preserveAspectRatio="xMidYMid meet">

<g transform="translate(0.000000,51.000000) scale(0.100000,-0.100000)"
fill="#000000" stroke="none">
<path d="M224 471 c-53 -13 -105 -52 -135 -99 -16 -25 -26 -48 -23 -51 4 -3
11 3 18 13 45 76 119 125 189 126 72 0 149 -48 185 -115 9 -18 17 -25 20 -17
7 22 -45 90 -90 116 -48 27 -117 39 -164 27z"/>
<path d="M833 440 c-37 -15 -30 -56 12 -81 34 -20 46 -39 25 -39 -6 0 -19 5
-30 12 -22 14 -35 6 -27 -16 8 -21 54 -31 83 -17 38 17 32 57 -11 78 -19 9
-35 23 -35 30 0 16 12 17 27 2 6 -6 18 -9 27 -7 14 2 15 6 4 19 -17 22 -48 30
-75 19z"/>
<path d="M1720 437 c-37 -19 -52 -57 -39 -96 27 -76 129 -65 145 15 11 56 -55
106 -106 81z m58 -39 c18 -18 14 -56 -7 -68 -26 -14 -50 -3 -57 26 -11 42 34
72 64 42z"/>
<path d="M190 421 c-19 -10 -48 -35 -65 -55 -27 -34 -30 -45 -30 -110 0 -64 3
-77 28 -109 37 -49 94 -77 154 -77 73 0 80 9 58 66 -20 52 -19 52 -45 -20 -14
-37 -22 -27 -50 56 -21 67 -22 68 -58 68 -23 0 -32 3 -24 8 18 12 27 104 13
130 -11 21 -10 22 29 22 54 0 80 -15 80 -45 0 -26 -25 -45 -59 -45 -17 0 -21
-6 -21 -30 0 -27 3 -30 31 -30 19 0 28 -4 24 -11 -8 -12 14 -99 24 -99 6 0 31
58 31 72 0 4 -7 14 -16 22 -14 15 -13 16 16 16 20 0 29 -4 25 -11 -8 -12 14
-99 25 -99 11 0 33 87 25 99 -4 7 4 11 22 11 18 0 23 -3 16 -8 -7 -5 -24 -40
-37 -80 -22 -62 -23 -71 -8 -63 94 50 109 219 26 292 -58 51 -151 64 -214 30z"/>
<path d="M590 365 c0 -68 2 -75 20 -75 18 0 20 7 20 75 0 68 -2 75 -20 75 -18
0 -20 -7 -20 -75z"/>
<path d="M652 368 c2 -60 6 -73 21 -76 14 -3 17 4 17 45 l0 48 31 -47 c19 -29
39 -48 50 -48 17 0 19 8 19 75 0 68 -2 75 -20 75 -17 0 -20 -7 -20 -42 l0 -43
-28 42 c-19 30 -34 43 -50 43 -22 0 -23 -3 -20 -72z"/>
<path d="M920 429 c0 -6 9 -13 20 -16 17 -5 20 -14 20 -64 0 -52 2 -59 20 -59
18 0 20 7 20 60 0 53 2 60 20 60 11 0 20 7 20 15 0 12 -13 15 -60 15 -37 0
-60 -4 -60 -11z"/>
<path d="M1060 365 c0 -60 3 -75 15 -75 12 0 15 15 15 75 0 60 -3 75 -15 75
-12 0 -15 -15 -15 -75z"/>
<path d="M1110 425 c0 -8 9 -15 20 -15 18 0 20 -7 20 -60 0 -53 2 -60 20 -60
18 0 20 7 20 60 0 53 2 60 20 60 11 0 20 7 20 15 0 12 -13 15 -60 15 -47 0
-60 -3 -60 -15z"/>
<path d="M1242 379 c5 -66 21 -89 65 -89 41 0 63 33 63 95 0 48 -2 55 -20 55
-18 0 -20 -7 -20 -54 0 -37 -4 -56 -14 -59 -23 -9 -36 15 -36 65 0 42 -3 48
-21 48 -20 0 -21 -4 -17 -61z"/>
<path d="M1387 434 c-10 -11 3 -24 24 -24 17 0 19 -7 19 -60 0 -47 3 -60 15
-60 12 0 15 13 15 60 0 53 2 60 20 60 11 0 20 7 20 15 0 11 -13 15 -53 15 -30
0 -57 -3 -60 -6z"/>
<path d="M1520 365 l0 -75 45 0 c33 0 45 4 45 15 0 9 -9 15 -25 15 -18 0 -25
5 -25 20 0 15 7 20 25 20 14 0 25 5 25 10 0 6 -11 10 -25 10 -16 0 -25 6 -25
15 0 9 9 15 25 15 16 0 25 6 25 15 0 11 -12 15 -45 15 l-45 0 0 -75z"/>
<path d="M1850 365 c0 -60 3 -75 15 -75 10 0 15 10 15 30 0 25 4 30 25 30 31
0 34 27 3 32 -35 5 -33 26 3 30 56 5 48 28 -10 28 l-51 0 0 -75z"/>
<path d="M200 350 c0 -23 5 -30 19 -30 24 0 45 25 37 45 -3 8 -17 15 -31 15
-21 0 -25 -5 -25 -30z"/>
<path d="M590 145 c0 -68 2 -75 20 -75 18 0 20 7 20 75 0 68 -2 75 -20 75 -18
0 -20 -7 -20 -75z"/>
<path d="M659 218 c-16 -35 -3 -148 16 -148 9 0 15 14 17 43 l3 42 29 -42 c16
-25 37 -43 47 -43 17 0 19 8 19 75 0 68 -2 75 -19 75 -16 0 -20 -8 -23 -42
l-3 -42 -28 42 c-15 23 -34 42 -42 42 -8 0 -16 -1 -16 -2z"/>
<path d="M820 145 c0 -59 3 -75 14 -75 10 0 16 14 18 43 l3 42 29 -42 c16 -25
37 -43 47 -43 17 0 19 8 19 76 0 66 -2 75 -17 72 -13 -2 -20 -16 -23 -43 l-5
-40 -24 43 c-15 25 -32 42 -43 42 -16 0 -18 -9 -18 -75z"/>
<path d="M995 195 c-30 -30 -32 -64 -4 -99 38 -48 123 -29 129 29 9 85 -68
128 -125 70z m80 -21 c20 -20 16 -53 -7 -68 -37 -23 -76 35 -48 70 16 18 35
18 55 -2z"/>
<path d="M1130 210 c0 -6 10 -40 22 -76 20 -56 26 -64 48 -64 23 0 28 7 49 71
12 39 20 73 17 76 -13 14 -34 -9 -46 -51 -7 -25 -16 -46 -20 -46 -3 0 -13 21
-21 47 -9 29 -22 49 -32 51 -9 2 -17 -2 -17 -8z"/>
<path d="M1278 145 c-25 -70 -26 -75 -9 -75 11 0 21 7 25 15 7 19 55 19 62 0
4 -8 15 -15 26 -15 12 0 18 5 15 13 -2 6 -14 40 -27 75 -18 49 -27 62 -44 62
-17 0 -26 -14 -48 -75z m62 -12 c0 -7 -7 -13 -15 -13 -16 0 -19 9 -9 35 5 13
8 14 15 3 5 -7 9 -19 9 -25z"/>
<path d="M1380 205 c0 -8 9 -15 20 -15 18 0 20 -7 20 -60 0 -53 2 -60 20 -60
18 0 20 7 20 60 0 53 2 60 20 60 11 0 20 7 20 15 0 12 -13 15 -60 15 -47 0
-60 -3 -60 -15z"/>
<path d="M1520 145 c0 -60 3 -75 15 -75 12 0 15 15 15 75 0 60 -3 75 -15 75
-12 0 -15 -15 -15 -75z"/>
<path d="M1607 208 c-21 -17 -38 -63 -30 -85 21 -59 95 -74 132 -27 28 35 26
69 -4 99 -26 27 -71 33 -98 13z m73 -32 c28 -35 -11 -93 -47 -70 -24 15 -28
48 -8 68 20 20 39 20 55 2z"/>
<path d="M1750 145 c0 -70 2 -75 21 -75 19 0 21 5 17 40 -2 22 -1 40 2 40 3 0
16 -18 30 -40 14 -22 33 -40 42 -40 16 0 18 10 18 75 0 59 -3 75 -14 75 -11 0
-16 -14 -18 -47 l-3 -48 -30 47 c-17 28 -38 48 -47 48 -16 0 -18 -10 -18 -75z"/>
<path d="M83 148 c30 -53 102 -103 159 -112 50 -8 122 11 167 43 34 25 75 85
68 104 -2 7 -11 -1 -19 -18 -35 -66 -113 -115 -183 -115 -69 0 -148 49 -181
113 -8 15 -19 27 -25 27 -6 0 0 -19 14 -42z"/>
</g>
</svg>
