<svg version="1.1" id="Layer_1" xmlns="http://www.w3.org/2000/svg"
	xmlns:xlink="http://www.w3.org/1999/xlink" x="0px" y="0px"
	viewBox="0 0 250.35 62.68" style="enable-background:new 0 0 250.35 62.68;" xml:space="preserve">
<style type="text/css">
	.st0{fill-rule:evenodd;clip-rule:evenodd;fill:#FFFFFF;}
	.st1{fill:#FFFFFF;}
</style>
<g>
	<g>
		<g>
			<g>
				<g>
					<path class="st0" d="M26.93,21.48c0.95-0.86,1.42-1.99,1.42-3.42c0-1.38-0.43-2.46-1.31-3.24c-0.87-0.78-2.22-1.17-4.02-1.17
						c-0.79,0-1.75,0.08-2.88,0.24c-0.09,3.01-0.14,5.84-0.15,8.51c1.12,0.24,2.09,0.36,2.9,0.36
						C24.63,22.76,25.98,22.34,26.93,21.48z"/>
					<path class="st0" d="M30.47,5.87C16.4,5.87,5,17.28,5,31.34c0,14.07,11.4,25.47,25.47,25.47c14.07,0,25.47-11.4,25.47-25.47
						C55.93,17.28,44.53,5.87,30.47,5.87z M44.42,32.03c1.85,0.11,3.06,0.17,3.63,0.17c0.68,0,1.82-0.06,3.42-0.17v0.9
						c-1.14,0.3-1.84,0.57-2.12,0.79c-0.18,0.15-0.35,0.4-0.51,0.76c-0.26,0.58-1.42,3.84-3.49,9.78c-0.06,0.15-1.14,3.38-3.24,9.68
						l-0.25,0.14h-0.83l-3.67-10.43c-0.33-0.93-0.77-2.1-1.31-3.51c-1.33,3.48-2.99,8.13-4.99,13.94h-1.08
						c-1.63-4.83-3.4-9.91-5.31-15.24c-0.94-2.63-1.55-4.18-1.82-4.62c-0.14-0.23-0.32-0.43-0.54-0.58
						c-0.22-0.14-0.61-0.29-1.18-0.46c-2.61,0-5.53,0.02-7.83,0l0.01-0.71c0.41-0.1,0.72-0.16,0.92-0.19
						c1.4-0.26,2.18-0.46,2.34-0.58c0.26-0.22,0.4-0.8,0.4-1.75l0.05-7.22l-0.02-7.23v-0.33c0-1.67-2.09-2.51-3.44-2.8
						c1.77-0.12,3.08-0.02,5-0.04l6.29-0.06c2.34,0,4.04,0.46,5.11,1.39c1.08,0.94,1.61,2.21,1.61,3.81c0,1.86-0.72,3.42-2.16,4.68
						c-1.44,1.26-3.43,1.89-5.95,1.89c-0.98,0-2.13-0.13-3.47-0.39c-0.01,1.55-0.01,2.66-0.01,3.33c0,2.53,0.05,3.99,0.16,4.4
						c0.04,0.17,0.14,0.31,0.3,0.39c0.3,0.16,0.91,0.35,2.99,0.38c0.02,0,0.04,0,0.06,0.01c0.46,0.01,0.81,0.02,1.05,0.02
						c0.85,0,2.21-0.06,4.08-0.17v0.9c-1.19,0.3-1.88,0.54-2.08,0.7c-0.2,0.16-0.31,0.36-0.31,0.59c0,0.21,0.21,0.95,0.63,2.22
						c1.85,5.73,3.3,9.95,4.33,12.65l4.09-11.22c-0.66-1.85-1.12-2.99-1.35-3.41c-0.23-0.42-0.47-0.7-0.72-0.85
						c-0.25-0.16-0.95-0.38-2.12-0.69v-0.9c1.85,0.11,3.29,0.17,4.3,0.17c1.07,0,2.45-0.06,4.16-0.17v0.9l-0.53,0.14
						c-0.83,0.16-1.36,0.34-1.6,0.54c-0.15,0.13-0.22,0.33-0.22,0.59c0,0.11,0.01,0.22,0.03,0.32c0.06,0.26,0.61,1.94,1.66,5.02
						l3.21,9.3c0.69-1.93,1.51-4.39,2.48-7.39l2.22-6.94c0.03-0.15,0.05-0.27,0.05-0.38c0-0.18-0.06-0.32-0.16-0.4
						c-0.11-0.09-0.85-0.35-2.23-0.78V32.03"/>
				</g>
				<path class="st0" d="M30.47,1.3c13.7,0,25.25,9.17,28.86,21.7h-2.51C53.28,11.81,42.82,3.7,30.47,3.7
					C18.11,3.7,7.65,11.81,4.11,23H1.6C5.22,10.47,16.77,1.3,30.47,1.3L30.47,1.3z M59.33,39.69c-3.62,12.53-15.17,21.7-28.86,21.7
					c-13.7,0-25.25-9.17-28.86-21.7h2.51c3.54,11.19,14,19.29,26.36,19.29c12.36,0,22.82-8.11,26.35-19.29H59.33z"/>
			</g>
		</g>
	</g>
	<g>
		<g>
			<g>
				<path class="st1" d="M30.47,1.3c13.7,0,25.25,9.17,28.86,21.7h-2.51C53.28,11.81,42.82,3.7,30.47,3.7
					C18.11,3.7,7.65,11.81,4.11,23H1.6C5.22,10.47,16.77,1.3,30.47,1.3L30.47,1.3z M59.33,39.69c-3.62,12.53-15.17,21.7-28.86,21.7
					c-13.7,0-25.25-9.17-28.86-21.7h2.51c3.54,11.19,14,19.29,26.36,19.29c12.36,0,22.82-8.11,26.35-19.29H59.33z"/>
			</g>
		</g>
	</g>
</g>
</svg>
